<?xml version="1.0" encoding="utf-8"?>
<svg viewBox="176.491 119.558 570.778 573.117" xmlns="http://www.w3.org/2000/svg">
  <defs>
    <clipPath id="clip0_1163_3648">
      <rect width="570.778" height="573.117" fill="white" transform="translate(176.491 119.558)"/>
    </clipPath>
    <linearGradient id="paint0_linear_1163_3648" x1="466.38" y1="308.224" x2="747.269" y2="599.714" gradientUnits="userSpaceOnUse">
      <stop stop-color="#676666"/>
      <stop offset="1" stop-color="#545454"/>
    </linearGradient>
    <linearGradient id="paint1_linear_1163_3648" x1="321.465" y1="208.863" x2="321.465" y2="692.675" gradientUnits="userSpaceOnUse">
      <stop stop-color="#212121"/>
      <stop offset="1" stop-color="#585858"/>
    </linearGradient>
    <linearGradient id="paint2_linear_1163_3648" x1="461.91" y1="119.558" x2="461.91" y2="309.166" gradientUnits="userSpaceOnUse">
      <stop stop-color="#353535"/>
      <stop offset="1" stop-color="#585858"/>
    </linearGradient>
    <filter id="filter1_d_1163_3648" x="198.193" y="261.365" width="254.863" height="402.774" filterUnits="userSpaceOnUse" color-interpolation-filters="sRGB">
      <feFlood flood-opacity="0" result="BackgroundImageFix"/>
      <feColorMatrix in="SourceAlpha" type="matrix" values="0 0 0 0 0 0 0 0 0 0 0 0 0 0 0 0 0 0 127 0" result="hardAlpha"/>
      <feOffset dx="4.67851" dy="9.35701"/>
      <feGaussianBlur stdDeviation="7.01776"/>
      <feComposite in2="hardAlpha" operator="out"/>
      <feColorMatrix type="matrix" values="0 0 0 0 0 0 0 0 0 0 0 0 0 0 0 0 0 0 0.25 0"/>
      <feBlend mode="normal" in2="BackgroundImageFix" result="effect1_dropShadow_1163_3648"/>
      <feBlend mode="normal" in="SourceGraphic" in2="effect1_dropShadow_1163_3648" result="shape"/>
    </filter>
  </defs>
  <g clip-path="url(#clip0_1163_3648)" transform="matrix(0.9999999999999999, 0, 0, 0.9999999999999999, -5.684341886080802e-14, 0)">
    <path d="M747.269 219.86L747.21 603.4L466.38 692.675L466.439 309.165L747.269 219.86Z" fill="url(#paint0_linear_1163_3648)"/>
    <path d="M466.38 692.675L176.491 592.373L176.55 208.863L466.439 309.166L466.38 692.675Z" fill="url(#paint1_linear_1163_3648)"/>
    <path d="M466.44 309.166L176.551 208.863L457.381 119.558L747.27 219.86L466.44 309.166Z" fill="url(#paint2_linear_1163_3648)"/>
    <g filter="url(#filter1_d_1163_3648)">
      <path d="M278.754 287.909C264.15 282.847 252.704 285.529 245.021 294.477V278.988L207.577 266.044V401.699L244.994 414.671V347.787C244.994 322.61 259.598 316.371 277.649 322.61C282.374 324.357 286.922 326.585 291.226 329.26V293.903C287.224 291.572 283.054 289.568 278.754 287.909" fill="#EE4036"/>
      <path d="M363.455 421.075C345.404 414.89 330.8 395.159 330.8 376.358C330.8 357.557 345.404 348.006 363.481 354.246C381.558 360.485 396.162 380.189 396.162 398.99C396.162 417.791 381.821 427.451 363.455 421.075V421.075ZM354.719 314.209C321.012 302.523 294.198 324.745 294.198 363.687C294.198 402.63 321.038 443.707 354.719 455.393C373.138 461.714 387.11 458.567 396.162 447.62V466.886L433.605 479.831V344.257L396.188 331.313V350.661C387.41 333.396 372.549 320.334 354.719 314.209" fill="#EE4036"/>
      <path d="M244.993 439.602L207.55 426.658V562.259L244.967 575.231L244.993 439.602Z" fill="#EE4036"/>
      <path d="M380.663 483.799C365.77 478.654 353.561 481.856 345.351 492.009V474.358L307.907 461.414V597.015L345.351 609.986V538.04C345.351 520.361 355.455 512.233 371.112 517.652C378.755 520.378 385.37 525.556 390.003 532.441C394.637 539.326 397.051 547.562 396.898 555.965V627.802L434.342 640.746V563.956C434.342 525.643 414.16 495.375 380.689 483.799" fill="#EE4036"/>
    </g>
  </g>
</svg>